<svg width="140" height="48" viewBox="0 0 140 48" fill="none" xmlns="http://www.w3.org/2000/svg">
<path d="M0 1.82891C3.66033 1.82891 5.21011 4.40102 6.85505 7.1615L20.3272 30.4509C20.9628 31.612 21.5881 33.0162 21.5711 34.3314C21.5202 37.7563 17.1087 39.0098 14.468 39.1263C12.5514 39.1924 10.6463 38.8016 8.90783 37.9858L7.83386 39.3866C8.45921 42.0717 10.9266 45.3356 14.3185 45.3082C20.2083 45.2671 23.3011 39.8284 25.6665 35.4171L30.0507 27.2281L17.333 5.23327C16.1571 3.26737 18.0875 1.83576 20.1403 1.80836L20.5957 0H0.469012L0 1.82891Z" fill="url(#paint0_linear_1376_4980)"/>
<path d="M74.2837 10.7405H75.9185C76.7783 10.7405 77.1182 9.79179 77.1182 9.15818C77.1182 8.52457 76.7579 7.72657 75.8879 7.72657H74.2803V10.7405H74.2837ZM72.3397 12.3776V2.89746H74.2837V6.11002H75.6432C77.9237 6.11002 79.1336 7.51423 79.1132 9.12736C79.0928 10.7405 77.9644 12.3776 75.667 12.3776H72.3193H72.3397Z" fill="#222222"/>
<path d="M133.713 17.162C134.424 17.6954 135.286 17.9836 136.172 17.9836C137.058 17.9836 137.921 17.6954 138.631 17.162L137.85 16.0044C137.367 16.3725 136.778 16.5717 136.172 16.5717C135.567 16.5717 134.978 16.3725 134.495 16.0044L133.713 17.162ZM140.001 28.3614V18.9224H138.094L134.247 25.3441V18.9224H132.357V28.3614H134.247L138.087 21.9569V28.3614H139.994H140.001Z" fill="#222222"/>
<path d="M72.2652 21.597V22.7718H69.3628V21.7443C69.3628 20.9018 70.0833 20.4223 70.9194 20.4223C71.4326 20.4223 72.2788 20.7648 72.2788 21.6107L72.2652 21.597ZM74.4301 27.2618L73.6111 25.7788C72.8905 26.4197 71.9685 26.7836 71.0077 26.8063C70.0765 26.8063 69.356 26.2891 69.356 25.2719V24.3883H74.2228V22.0868C74.2228 19.6894 72.7172 18.7715 70.9126 18.7715C68.8394 18.7715 67.3916 19.8435 67.3916 22.1964V25.3439C67.3916 27.4502 68.7511 28.5085 70.8548 28.5085C72.391 28.5119 73.3358 28.0084 74.4301 27.2618Z" fill="#222222"/>
<path d="M66.7287 42.7531H68.3634C69.2232 42.7531 69.5631 42.0681 69.5631 41.4277C69.5739 41.2641 69.5491 41.1002 69.4905 40.9474C69.4318 40.7946 69.3406 40.6566 69.2234 40.543C69.1062 40.4294 68.9657 40.3431 68.8119 40.29C68.658 40.2369 68.4945 40.2184 68.3328 40.2358H66.7253V42.7497L66.7287 42.7531ZM66.7287 36.5883V38.6261H68.1289C68.263 38.6397 68.3984 38.6229 68.5252 38.5769C68.6521 38.531 68.7671 38.457 68.8619 38.3605C68.9567 38.264 69.0289 38.1473 69.0732 38.019C69.1175 37.8908 69.1328 37.7541 69.1179 37.6192C69.1248 37.4876 69.1052 37.356 69.0602 37.2322C69.0153 37.1085 68.9459 36.9952 68.8564 36.8992C68.7668 36.8032 68.6589 36.7265 68.5391 36.6736C68.4194 36.6208 68.2902 36.5929 68.1595 36.5917H66.7287V36.5883ZM64.7846 44.3868V34.9546H68.1289C70.4264 34.9546 71.1469 36.3657 71.1129 37.4445C71.1193 37.8362 71.0155 38.2217 70.8134 38.5563C70.6113 38.8909 70.3192 39.1609 69.9709 39.335C70.4381 39.4919 70.8437 39.7945 71.129 40.199C71.4143 40.6035 71.5646 41.089 71.5581 41.5852C71.5581 42.9552 70.5589 44.3936 68.258 44.3936H64.7812L64.7846 44.3868Z" fill="#222222"/>
<path d="M122.948 34.9546V36.5711H125.317L125.314 44.4142H125.439H127.22H127.343V36.5711H129.708V34.9546H122.948Z" fill="#222222"/>
<path d="M108.189 1.15761C108.899 1.69105 109.762 1.97918 110.648 1.97918C111.534 1.97918 112.396 1.69105 113.107 1.15761L112.325 0C111.842 0.368094 111.253 0.567276 110.648 0.567276C110.042 0.567276 109.454 0.368094 108.971 0L108.189 1.15761ZM114.476 12.357V2.918H112.57L108.709 9.35336V2.918H106.819V12.357H108.726L112.566 5.95245V12.357H114.473H114.476Z" fill="#222222"/>
<path d="M50.8471 9.42907C50.8471 10.251 50.0314 10.7511 49.2905 10.7511C48.6882 10.7358 48.1012 10.5571 47.5912 10.2339V5.13767C48.1051 4.7101 48.7466 4.46887 49.4129 4.45269C49.5972 4.44536 49.7812 4.47519 49.9539 4.54041C50.1267 4.60563 50.2848 4.70495 50.419 4.83253C50.5532 4.96011 50.6608 5.1134 50.7355 5.28342C50.8101 5.45343 50.8504 5.63676 50.8539 5.82265V9.42907H50.8471ZM52.8115 9.22358V5.96649C52.8115 3.91155 51.7239 2.74708 49.7085 2.74708C48.9472 2.74708 47.6388 3.05533 47.1052 3.49371C46.961 3.15877 46.6981 2.89008 46.3677 2.74023L45.168 3.85675C45.6234 4.16499 45.637 4.76778 45.637 5.03492V15.4124H47.581V12.0971C48.2075 12.3577 48.8778 12.4948 49.5556 12.5012C51.3807 12.5046 52.8115 11.3504 52.8115 9.22358Z" fill="#222222"/>
<path d="M59.0105 10.1858C58.7711 10.4593 58.4644 10.6644 58.1214 10.7804C57.7783 10.8965 57.4109 10.9194 57.0563 10.8468C56.7991 10.7858 56.569 10.641 56.4019 10.4348C56.2347 10.2285 56.1398 9.97248 56.1319 9.70633C56.1194 9.51222 56.1482 9.31767 56.2161 9.13562C56.2841 8.95357 56.3898 8.78819 56.5261 8.65049C56.6624 8.51279 56.8263 8.40592 57.0068 8.337C57.1873 8.26807 57.3802 8.23867 57.5729 8.25074H59.0105V10.1892V10.1858ZM70.3517 12.3572V2.89762H63.9351V8.7542C63.9351 9.94607 63.1976 10.9393 62.1678 10.9667C61.6886 10.9667 60.9579 10.6584 60.9579 9.93922V5.94578C60.9579 3.99016 59.9383 2.74692 57.7428 2.74692C56.5276 2.7238 55.3525 3.18541 54.4733 4.03126L55.4929 5.3019C56.0512 4.77968 56.7718 4.46863 57.5321 4.4217C58.1778 4.4217 58.9935 4.70939 58.9935 5.58959V6.59651H57.3996C55.1191 6.59651 54.1641 8.05552 54.1641 9.58988C54.1641 11.066 54.9661 12.5045 57.267 12.5045C58.0738 12.4711 58.8425 12.1494 59.4353 11.5969C59.8005 11.9468 60.2356 12.2143 60.7114 12.3814C61.1873 12.5486 61.6931 12.6115 62.195 12.5661C64.4075 12.4976 65.8281 11.2955 65.7704 8.69255V4.51417H68.4451V12.3572H70.3517Z" fill="#222222"/>
<path d="M96.0893 12.3639L92.6057 7.37038L95.8616 2.91801H93.6457L91.2089 6.62033H90.0126V2.89746H88.1025V12.3639H89.9752L89.9922 8.23688H91.1783L93.8666 12.3639H96.0893Z" fill="#222222"/>
<path d="M86.8632 11.3023L86.0645 9.87756C84.9599 10.6619 84.2972 10.905 83.7432 10.905C82.965 10.905 82.1867 10.5009 82.1867 9.67892V5.9903C82.1867 5.14777 82.9616 4.55184 83.8554 4.55184C84.5939 4.61122 85.2814 4.95459 85.7756 5.51081L86.7952 4.21962C86.4199 3.74355 85.9383 3.36356 85.3896 3.11061C84.8409 2.85766 84.2407 2.73891 83.6379 2.76404C81.7177 2.76404 80.2393 3.95248 80.2393 6.00057V9.54877C80.2393 11.5592 81.7822 12.5045 83.6821 12.5045C84.8558 12.4974 85.9886 12.0688 86.8768 11.2955" fill="#222222"/>
<path d="M104.847 12.357V2.91797H102.94L99.0796 9.35336V2.91797H97.1934V12.357H99.0796H99.1L102.94 5.95243V12.357H104.847Z" fill="#222222"/>
<path d="M45.1173 0H42.9422L41.2598 5.62709C41.2293 5.72983 41.1885 5.84285 41.1647 5.96957C41.1409 6.0963 41.1171 6.17507 41.1069 6.25384C41.0967 6.33261 41.0865 6.37371 41.0865 6.37714C41.0865 6.38056 41.0865 6.33604 41.0661 6.26069C41.0457 6.18534 41.0321 6.09287 41.0084 5.98327C40.9868 5.87317 40.9549 5.76538 40.9132 5.66133L38.4288 0H36.2129L40.1893 8.80538L39.9378 9.44241C39.6183 10.1479 38.7823 10.9254 37.2801 10.9905L37.518 12.518C39.7203 12.5659 41.1715 11.5795 41.7357 9.92874L45.1173 0Z" fill="#222222"/>
<path d="M130.372 18.9229H128.465V28.3619H130.372V18.9229Z" fill="#222222"/>
<path d="M122.568 26.7659H124.203C125.063 26.7659 125.402 25.8172 125.402 25.1836C125.402 24.55 125.042 23.752 124.172 23.752H122.565V26.7659H122.568ZM120.624 28.403V18.9229H122.568V22.1354H123.927C126.208 22.1354 127.418 23.5396 127.397 25.1527C127.377 26.7659 126.249 28.403 123.951 28.403H120.604H120.624Z" fill="#222222"/>
<path d="M45.2638 25.4367C45.2624 25.6193 45.2239 25.7997 45.1506 25.9668C45.0773 26.1338 44.9708 26.2839 44.8376 26.4078C44.7045 26.5317 44.5475 26.6267 44.3765 26.6871C44.2055 26.7475 44.024 26.7718 43.8432 26.7587C43.626 26.7811 43.4068 26.7451 43.208 26.6542C43.0092 26.5634 42.8378 26.421 42.7114 26.2416V21.3303V21.1282C42.8627 20.944 43.0529 20.7961 43.2681 20.6954C43.4833 20.5946 43.7181 20.5436 43.9553 20.546C44.132 20.5416 44.3075 20.5746 44.4707 20.6429C44.6339 20.7111 44.7811 20.8131 44.9028 20.9421C45.0244 21.0712 45.1179 21.2246 45.1772 21.3923C45.2365 21.56 45.2602 21.7384 45.2468 21.9159V25.4367H45.2638ZM40.7844 21.0494V21.1659V26.2416C40.6581 26.421 40.4867 26.5634 40.2879 26.6542C40.0891 26.7451 39.8699 26.7811 39.6527 26.7587C39.473 26.7699 39.293 26.7441 39.1236 26.6828C38.9541 26.6216 38.7988 26.5262 38.6672 26.4025C38.5355 26.2788 38.4303 26.1294 38.3578 25.9633C38.2853 25.7973 38.2472 25.6181 38.2457 25.4367V21.8269C38.2323 21.649 38.2561 21.4704 38.3155 21.3024C38.375 21.1344 38.4688 20.9809 38.5909 20.8518C38.7129 20.7227 38.8605 20.6208 39.0241 20.5528C39.1877 20.4847 39.3636 20.4521 39.5405 20.4569C39.7787 20.4555 40.0141 20.5081 40.2293 20.6106C40.4446 20.7132 40.6343 20.8631 40.7844 21.0494ZM47.2418 25.2346V21.9741C47.2418 19.9192 46.3038 18.7547 44.2884 18.7547C43.7458 18.755 43.2122 18.8953 42.7386 19.1623V17.3813H40.7844V19.1623C40.3107 18.8956 39.7773 18.7553 39.2347 18.7547C37.2193 18.7547 36.2812 19.9226 36.2812 21.9741V25.2312C36.2812 27.3581 37.5625 28.5123 39.3876 28.5123C39.88 28.4981 40.3607 28.3578 40.7844 28.1047V31.4063H42.7284V28.1047C43.1526 28.3565 43.6332 28.4955 44.1253 28.5089C45.9503 28.5123 47.2418 27.3581 47.2418 25.2312V25.2346Z" fill="#222222"/>
<path d="M53.7779 21.597V22.7718H50.8755V21.7443C50.8755 20.9018 51.596 20.4223 52.4321 20.4223C52.9453 20.4223 53.7915 20.7648 53.7915 21.6107L53.7779 21.597ZM55.9632 27.2755L55.1442 25.7925C54.4236 26.4334 53.5016 26.7973 52.5408 26.82C51.6096 26.82 50.8891 26.3028 50.8891 25.2856V24.3883H55.7389V22.0868C55.7389 19.6894 54.2333 18.7715 52.4253 18.7715C50.3521 18.7715 48.9043 19.8435 48.9043 22.1964V25.3439C48.9043 27.4502 50.2637 28.5085 52.3675 28.5085C53.9139 28.5119 54.8451 28.0084 55.9496 27.2618L55.9632 27.2755Z" fill="#222222"/>
<path d="M59.7544 26.7688C60.2336 26.2414 60.5327 25.2345 60.5089 24.207V20.5492H63.1836V26.7688H59.7544ZM65.0903 26.7688V18.9258H58.6567V24.1419C58.6567 25.3303 57.9769 26.7414 56.9336 26.7688H56.7568V30.6766H58.6091V28.3888H64.2542V30.68H66.1574V26.7688H65.0903Z" fill="#222222"/>
<path d="M118.653 28.3619V18.9229H116.743V22.6115H112.886V18.9229H110.996V28.3619H112.886V24.228H116.743V28.3619H118.653Z" fill="#222222"/>
<path d="M81.2919 25.4535C81.2919 26.2754 80.4762 26.7755 79.7353 26.7755C79.133 26.7602 78.546 26.5815 78.036 26.2583V21.1758C78.55 20.7484 79.1915 20.5072 79.8577 20.4908C80.042 20.4835 80.226 20.5133 80.3987 20.5785C80.5715 20.6437 80.7296 20.743 80.8638 20.8706C80.998 20.9982 81.1056 21.1515 81.1803 21.3215C81.255 21.4915 81.2952 21.6749 81.2987 21.8607V25.4535H81.2919ZM83.2563 25.248V21.9909C83.2563 19.9359 82.1687 18.7715 80.1533 18.7715C79.392 18.7715 78.0836 19.0797 77.55 19.5181C77.4023 19.1877 77.1383 18.9242 76.8091 18.7783L75.6094 19.8949C76.0648 20.2031 76.0818 20.8059 76.0818 21.073V31.4231H78.0258V28.1249C78.6524 28.3854 79.3226 28.5226 80.0004 28.529C81.8255 28.529 83.2665 27.3783 83.2665 25.2514L83.2563 25.248Z" fill="#222222"/>
<path d="M89.4558 26.2141C88.7387 27.1491 86.6044 27.269 86.5772 25.7346C86.5641 25.5396 86.5926 25.3441 86.6608 25.1611C86.7289 24.9781 86.8351 24.8119 86.9723 24.6738C87.1094 24.5356 87.2743 24.4285 87.4559 24.3599C87.6374 24.2912 87.8315 24.2625 88.025 24.2756H89.4626V26.2141H89.4558ZM100.811 28.3855V18.9225H94.3804V24.7825C94.3804 25.9744 93.6429 26.9676 92.6131 26.995C92.1339 26.995 91.4032 26.6867 91.4032 25.9675V21.9741C91.4032 20.0185 90.3836 18.7752 88.1881 18.7752C86.9729 18.7525 85.798 19.214 84.9187 20.0596L85.9382 21.3302C86.4965 20.808 87.2171 20.4969 87.9774 20.45C88.6231 20.45 89.4388 20.7377 89.4388 21.6179V22.6248H87.8449C85.5644 22.6248 84.6094 24.0838 84.6094 25.6182C84.6094 27.0943 85.4114 28.5328 87.7123 28.5328C88.5191 28.4994 89.2878 28.1777 89.8806 27.6252C90.246 27.9749 90.681 28.2423 91.1569 28.4094C91.6327 28.5765 92.1384 28.6396 92.6403 28.5944C94.8528 28.5225 96.2735 27.3203 96.2157 24.7208V20.5493H98.9006V28.3923H100.804L100.811 28.3855Z" fill="#222222"/>
<path d="M104.729 26.7659H106.377C107.237 26.7659 107.577 25.8172 107.577 25.1836C107.577 24.55 107.216 23.752 106.346 23.752H104.739V26.7659H104.729ZM102.785 28.403V18.9229H104.729V22.1354H106.088C108.372 22.1354 109.578 23.5396 109.561 25.1527C109.544 26.7659 108.413 28.403 106.115 28.403H102.768H102.785Z" fill="#222222"/>
<path d="M44.3122 34.9546H42.1949L40.278 42.2907C40.2726 41.8353 40.2017 41.3831 40.0673 40.9482L38.436 34.9512L36.2812 34.9717C36.2812 34.9717 38.7928 42.9689 39.3808 44.3697C39.0919 45.6061 38.4224 46.4246 37.0018 46.565L37.1853 48.0001C39.34 48.0001 40.5635 46.8287 41.0087 45.3869L44.3122 34.9546Z" fill="#222222"/>
<path d="M53.185 44.3936V34.9546H51.2783V38.6398H47.4175V34.9546H45.5312V44.3936H47.4175V40.2598H51.2783V44.3936H53.185Z" fill="#222222"/>
<path d="M62.8099 44.3936V34.9546H60.9033L57.0425 41.39V34.9546H55.1562V44.3936H57.0425H57.0629L60.9033 37.9891V44.3936H62.8099Z" fill="#222222"/>
<path d="M107.394 34.9546V36.5711H109.759V44.4142H109.881H111.662H111.785V36.5711H114.153V34.9546H107.394Z" fill="#222222"/>
<path d="M105.98 44.3936V34.9546H104.073L100.212 41.39V34.9546H98.3262V44.3936H100.212H100.233L104.073 37.9891V44.3936H105.98Z" fill="#222222"/>
<path d="M86.7977 41.4657C86.7977 42.2876 85.9821 42.7877 85.2412 42.7877C84.6389 42.7723 84.0519 42.5937 83.5419 42.2705V37.1845C84.0558 36.7569 84.6973 36.5157 85.3635 36.4995C85.5479 36.4922 85.7318 36.522 85.9046 36.5873C86.0774 36.6525 86.2355 36.7518 86.3697 36.8794C86.5039 37.007 86.6115 37.1603 86.6861 37.3303C86.7608 37.5003 86.8011 37.6836 86.8045 37.8695V41.4794L86.7977 41.4657ZM88.7621 41.2602V38.0168C88.7621 35.9618 87.6746 34.7974 85.6592 34.7974C84.8979 34.7974 83.5894 35.1056 83.0559 35.544C82.9091 35.2121 82.645 34.9472 82.3149 34.8008L81.1152 35.9173C81.5707 36.2255 81.5842 36.8283 81.5842 37.0955V47.4353H83.5317V44.1371C84.1582 44.3977 84.8285 44.5349 85.5063 44.5412C87.3449 44.5241 88.7621 43.387 88.7621 41.2602Z" fill="#222222"/>
<path d="M97.082 43.3111L96.2833 41.8863C95.1787 42.6706 94.516 42.9138 93.9654 42.9138C93.1871 42.9138 92.4089 42.5097 92.4089 41.6877V38.0162C92.4089 37.1737 93.1871 36.5777 94.081 36.5777C94.8194 36.6374 95.5068 36.9808 96.0012 37.5367L97.0208 36.2455C96.6455 35.7694 96.1639 35.3894 95.6152 35.1365C95.0665 34.8835 94.4663 34.7648 93.8635 34.7899C91.9432 34.7899 90.4648 35.9784 90.4648 38.0265V41.5712C90.4648 43.5816 92.0078 44.5269 93.911 44.5269C95.0848 44.5199 96.2176 44.0912 97.1057 43.3179" fill="#222222"/>
<path d="M120.015 37.6058V38.7805H117.113V37.7531C117.113 36.9105 117.833 36.431 118.669 36.431C119.183 36.431 120.029 36.7735 120.029 37.6195L120.015 37.6058ZM122.201 43.2843L121.364 41.7842C120.644 42.4251 119.722 42.789 118.761 42.8116C117.83 42.8116 117.109 42.2945 117.109 41.2773V40.4142H121.976V38.1127C121.976 35.7152 120.471 34.7974 118.663 34.7974C116.589 34.7974 115.142 35.8694 115.142 38.2223V41.3663C115.142 43.4726 116.501 44.5309 118.605 44.5309C120.151 44.5241 121.082 44.0172 122.187 43.2706L122.201 43.2843Z" fill="#222222"/>
<path d="M77.8286 37.6058V38.7805H74.9262V37.7531C74.9262 36.9105 75.6467 36.431 76.4828 36.431C76.996 36.431 77.8422 36.7735 77.8422 37.6195L77.8286 37.6058ZM80.0139 43.2843L79.1609 41.7842C78.4403 42.4251 77.5183 42.789 76.5575 42.8116C75.6263 42.8116 74.9058 42.2945 74.9058 41.2773V40.4142H79.7726V38.1127C79.7726 35.7152 78.267 34.7974 76.4624 34.7974C74.3892 34.7974 72.9414 35.8694 72.9414 38.2223V41.3663C72.9414 43.4726 74.3009 44.5309 76.4046 44.5309C77.9476 44.5241 78.8788 44.0172 79.9834 43.2706L80.0139 43.2843Z" fill="#222222"/>
<defs>
<linearGradient id="paint0_linear_1376_4980" x1="19.5027" y1="5.54588e-05" x2="18.5023" y2="49.0005" gradientUnits="userSpaceOnUse">
<stop stop-color="#FF2D7F"/>
<stop offset="0.48" stop-color="#FB3727"/>
<stop offset="1" stop-color="#FEEA0F"/>
</linearGradient>
</defs>
</svg>
